<svg xmlns="http://www.w3.org/2000/svg" xmlns:xlink="http://www.w3.org/1999/xlink" width="500" zoomAndPan="magnify" viewBox="0 0 375 374.999991" height="500" preserveAspectRatio="xMidYMid meet" version="1.0"><defs><g/><clipPath id="434a4c473c"><path d="M 84.125 134 L 115 134 L 115 147 L 84.125 147 Z M 84.125 134 " clip-rule="nonzero"/></clipPath><clipPath id="6ac2e156bc"><path d="M 182 85 L 260 85 L 260 190.746094 L 182 190.746094 Z M 182 85 " clip-rule="nonzero"/></clipPath><clipPath id="ee9cbc3040"><path d="M 124 84.738281 L 244 84.738281 L 244 186 L 124 186 Z M 124 84.738281 " clip-rule="nonzero"/></clipPath><clipPath id="5090e58172"><path d="M 100.460938 0.304688 L 300.476562 0.304688 L 300.476562 113.316406 L 100.460938 113.316406 Z M 100.460938 0.304688 " clip-rule="nonzero"/></clipPath><clipPath id="7ac244e762"><path d="M 0.0390625 208 L 369.398438 208 L 369.398438 253.398438 L 0.0390625 253.398438 Z M 0.0390625 208 " clip-rule="nonzero"/></clipPath><clipPath id="1593118419"><rect x="0" width="370" y="0" height="46"/></clipPath><clipPath id="51c24cba8b"><rect x="0" width="370" y="0" height="254"/></clipPath></defs><g transform="matrix(1, 0, 0, 1, 5, 61)"><g clip-path="url(#51c24cba8b)"><g clip-path="url(#434a4c473c)"><path fill="#f1f1f1" d="M 114.1875 140.402344 C 114.1875 137.222656 111.609375 134.644531 108.429688 134.644531 L 89.882812 134.644531 C 86.707031 134.644531 84.128906 137.222656 84.128906 140.402344 C 84.128906 143.578125 86.707031 146.15625 89.882812 146.15625 L 108.429688 146.15625 C 111.609375 146.15625 114.1875 143.578125 114.1875 140.402344 " fill-opacity="1" fill-rule="nonzero"/></g><path fill="#f1f1f1" d="M 126.960938 157.667969 L 116.179688 157.667969 C 113 157.667969 110.421875 160.246094 110.421875 163.425781 C 110.421875 166.601562 113 169.179688 116.179688 169.179688 L 126.960938 169.179688 C 130.136719 169.179688 132.714844 166.601562 132.714844 163.425781 C 132.714844 160.246094 130.136719 157.667969 126.960938 157.667969 " fill-opacity="1" fill-rule="nonzero"/><g clip-path="url(#6ac2e156bc)"><path fill="#bded85" d="M 215.035156 85.425781 C 239.375 98.125 250.234375 127.617188 239.3125 153.3125 C 229.601562 176.15625 205.785156 188.683594 182.328125 185.058594 C 189.601562 188.804688 197.847656 190.917969 206.585938 190.917969 C 235.902344 190.917969 259.664062 167.152344 259.664062 137.835938 C 259.664062 111.394531 240.335938 89.472656 215.035156 85.425781 " fill-opacity="1" fill-rule="nonzero"/></g><g clip-path="url(#ee9cbc3040)"><path fill="#f1f1f1" d="M 202.964844 142.53125 C 192.492188 139.011719 185.347656 134.117188 185.347656 124.625 C 185.347656 116.011719 191.414062 109.257812 201.886719 107.203125 L 201.886719 97.902344 L 211.480469 97.902344 L 211.480469 106.519531 C 218.035156 106.8125 222.441406 108.179688 225.671875 109.746094 L 222.832031 120.808594 C 220.289062 119.730469 215.785156 117.480469 208.738281 117.480469 C 202.375 117.480469 200.320312 120.21875 200.320312 122.960938 C 200.320312 126.1875 203.746094 128.246094 212.066406 131.375 C 223.710938 135.488281 228.410156 140.871094 228.410156 149.679688 C 228.410156 158.390625 222.246094 165.828125 210.988281 167.785156 L 210.988281 177.769531 L 201.398438 177.769531 L 201.398438 168.46875 C 194.839844 168.175781 188.480469 166.414062 184.761719 164.257812 L 187.695312 152.8125 C 191.808594 155.058594 197.582031 157.117188 203.941406 157.117188 C 209.523438 157.117188 213.339844 154.960938 213.339844 151.046875 C 213.339844 147.328125 210.207031 144.980469 202.964844 142.53125 Z M 239.3125 153.3125 C 250.234375 127.617188 239.375 98.125 215.035156 85.425781 C 212.285156 84.988281 209.460938 84.753906 206.585938 84.753906 C 192.027344 84.753906 178.847656 90.621094 169.257812 100.109375 L 175.859375 100.109375 C 179.035156 100.109375 181.613281 102.6875 181.613281 105.867188 C 181.613281 109.046875 179.035156 111.621094 175.859375 111.621094 L 141.941406 111.621094 C 138.761719 111.621094 136.183594 114.199219 136.183594 117.378906 C 136.183594 120.558594 138.761719 123.132812 141.941406 123.132812 L 164.070312 123.132812 C 167.246094 123.132812 169.824219 125.710938 169.824219 128.890625 C 169.824219 132.066406 167.246094 134.644531 164.070312 134.644531 L 130.152344 134.644531 C 126.972656 134.644531 124.394531 137.222656 124.394531 140.402344 C 124.394531 143.578125 126.972656 146.15625 130.152344 146.15625 L 170.128906 146.15625 C 173.308594 146.15625 175.882812 148.734375 175.882812 151.914062 C 175.882812 155.089844 173.308594 157.667969 170.128906 157.667969 L 145.523438 157.667969 C 142.34375 157.667969 139.765625 160.246094 139.765625 163.425781 C 139.765625 166.601562 142.34375 169.179688 145.523438 169.179688 L 163.746094 169.179688 C 168.605469 175.808594 174.96875 181.269531 182.328125 185.058594 C 205.785156 188.683594 229.601562 176.15625 239.3125 153.3125 " fill-opacity="1" fill-rule="nonzero"/></g><g clip-path="url(#5090e58172)"><path fill="#faf45b" d="M 300.476562 39.4375 L 295 44.550781 L 295.808594 48.050781 C 269.535156 77.167969 252.191406 90.941406 247.125 83.601562 C 243.082031 69.675781 245.105469 55.898438 251.46875 42.230469 L 256.875 39.699219 L 257.917969 27.714844 L 249.609375 36.417969 L 251.3125 42.25 C 244.441406 53.773438 237.0625 63.980469 228.625 71.441406 C 219.738281 79.292969 217.027344 80.394531 211.28125 68.039062 C 207.023438 58.890625 205.566406 46.628906 202.703125 35.921875 L 209.980469 27.425781 L 200.472656 0.335938 L 190.960938 27.425781 L 198.234375 35.917969 C 195.375 46.625 193.917969 58.890625 189.65625 68.039062 C 183.910156 80.394531 181.203125 79.292969 172.3125 71.441406 C 163.875 63.980469 156.496094 53.773438 149.628906 42.246094 L 151.328125 36.417969 L 143.019531 27.71875 L 144.0625 39.703125 L 149.472656 42.234375 C 155.835938 55.898438 157.859375 69.675781 153.816406 83.601562 C 148.75 90.941406 131.40625 77.167969 105.132812 48.050781 L 105.9375 44.550781 L 100.460938 39.4375 L 101.539062 46.851562 L 104.789062 48.152344 L 142.214844 113.308594 L 130.722656 81.65625 C 130.957031 81.847656 131.191406 82.035156 131.421875 82.222656 C 137.28125 86.914062 147.546875 94.511719 155.332031 89.988281 C 156.648438 89.21875 157.753906 88.167969 158.617188 86.917969 L 159.152344 86.136719 L 159.417969 85.226562 C 160.988281 79.824219 161.722656 74.453125 161.730469 69.140625 C 163.867188 71.496094 166.101562 73.730469 168.453125 75.808594 C 172.410156 79.304688 177.421875 83.914062 183.136719 83.070312 C 189.316406 82.160156 192.59375 75.570312 194.949219 70.5 C 197.5625 64.882812 199.128906 58.617188 200.472656 52.476562 C 201.820312 58.617188 203.378906 64.882812 205.996094 70.5 C 208.355469 75.570312 211.628906 82.160156 217.804688 83.070312 C 223.523438 83.914062 228.535156 79.304688 232.488281 75.808594 C 234.839844 73.730469 237.078125 71.496094 239.214844 69.140625 C 239.226562 74.453125 239.957031 79.824219 241.523438 85.226562 L 241.789062 86.136719 L 242.324219 86.917969 C 243.191406 88.167969 244.292969 89.21875 245.613281 89.988281 C 253.398438 94.515625 263.660156 86.914062 269.519531 82.222656 C 269.753906 82.035156 269.988281 81.847656 270.21875 81.65625 L 260.132812 110.96875 L 296.152344 48.152344 L 299.398438 46.851562 Z M 300.476562 39.4375 " fill-opacity="1" fill-rule="evenodd"/></g><path fill="#faf45b" d="M 180.828125 63.617188 C 181.496094 66.679688 182.25 69.777344 183.277344 72.734375 C 183.960938 71.835938 184.886719 70.339844 186.109375 67.824219 C 184.246094 60.949219 183.226562 53.136719 180.824219 46.851562 C 178.234375 53.644531 177.25 62.222656 175.074219 69.472656 C 176.035156 70.320312 177.304688 71.410156 178.519531 72.320312 C 179.472656 69.488281 180.1875 66.535156 180.828125 63.617188 Z M 180.828125 63.617188 " fill-opacity="1" fill-rule="evenodd"/><path fill="#faf45b" d="M 220.054688 63.617188 C 220.699219 66.546875 221.417969 69.511719 222.375 72.355469 C 223.582031 71.457031 224.851562 70.367188 225.824219 69.515625 C 223.636719 62.253906 222.65625 53.65625 220.058594 46.851562 C 217.667969 53.109375 216.648438 60.890625 214.796875 67.75 C 216.011719 70.257812 216.941406 71.769531 217.628906 72.679688 C 218.640625 69.742188 219.390625 66.660156 220.054688 63.617188 Z M 220.054688 63.617188 " fill-opacity="1" fill-rule="evenodd"/><path fill="#faf45b" d="M 254.730469 81.1875 C 255.445312 76.53125 256.65625 71.636719 256.777344 67.261719 C 254.03125 70.171875 251.621094 74.039062 249.097656 77.582031 C 249.332031 78.878906 249.621094 80.164062 249.960938 81.449219 C 250.726562 80.449219 251.457031 79.425781 252.171875 78.402344 C 251.945312 79.660156 251.734375 80.933594 251.570312 82.214844 C 252.355469 82.113281 253.386719 81.816406 254.730469 81.1875 Z M 254.730469 81.1875 " fill-opacity="1" fill-rule="evenodd"/><path fill="#faf45b" d="M 151.839844 77.585938 C 149.320312 74.039062 146.910156 70.171875 144.160156 67.261719 C 144.28125 71.632812 145.496094 76.527344 146.207031 81.183594 C 147.554688 81.816406 148.582031 82.113281 149.367188 82.210938 C 149.199219 80.929688 148.992188 79.65625 148.769531 78.398438 C 149.480469 79.421875 150.210938 80.449219 150.980469 81.445312 C 151.316406 80.164062 151.609375 78.878906 151.839844 77.585938 Z M 151.839844 77.585938 " fill-opacity="1" fill-rule="evenodd"/><g clip-path="url(#7ac244e762)"><g transform="matrix(1, 0, 0, 1, 0, 208)"><g clip-path="url(#1593118419)"><g fill="#f1f1f1" fill-opacity="1"><g transform="translate(0.728556, 35.642304)"><g><path d="M 9.0625 -21.09375 L 9.0625 -14.25 L 21.0625 -14.25 L 21.0625 -9.4375 L 9.0625 -9.4375 L 9.0625 0 L 3.078125 0 L 3.078125 -25.90625 L 22.65625 -25.90625 L 22.65625 -21.09375 Z M 9.0625 -21.09375 "/></g></g></g><g fill="#f1f1f1" fill-opacity="1"><g transform="translate(28.716099, 35.642304)"><g><path d="M 3.078125 -25.90625 L 9.0625 -25.90625 L 9.0625 0 L 3.078125 0 Z M 3.078125 -25.90625 "/></g></g></g><g fill="#f1f1f1" fill-opacity="1"><g transform="translate(45.190589, 35.642304)"><g><path d="M 26.84375 -25.90625 L 26.84375 0 L 21.90625 0 L 9 -15.734375 L 9 0 L 3.078125 0 L 3.078125 -25.90625 L 8.03125 -25.90625 L 20.90625 -10.171875 L 20.90625 -25.90625 Z M 26.84375 -25.90625 "/></g></g></g><g fill="#f1f1f1" fill-opacity="1"><g transform="translate(79.434434, 35.642304)"><g><path d="M 20.140625 -5.546875 L 8.109375 -5.546875 L 5.8125 0 L -0.328125 0 L 11.21875 -25.90625 L 17.140625 -25.90625 L 28.71875 0 L 22.4375 0 Z M 18.25 -10.109375 L 14.140625 -20.03125 L 10.03125 -10.109375 Z M 18.25 -10.109375 "/></g></g></g><g fill="#f1f1f1" fill-opacity="1"><g transform="translate(112.12345, 35.642304)"><g><path d="M 26.84375 -25.90625 L 26.84375 0 L 21.90625 0 L 9 -15.734375 L 9 0 L 3.078125 0 L 3.078125 -25.90625 L 8.03125 -25.90625 L 20.90625 -10.171875 L 20.90625 -25.90625 Z M 26.84375 -25.90625 "/></g></g></g><g fill="#f1f1f1" fill-opacity="1"><g transform="translate(146.367295, 35.642304)"><g><path d="M 15.46875 0.4375 C 12.832031 0.4375 10.445312 -0.132812 8.3125 -1.28125 C 6.175781 -2.425781 4.492188 -4.015625 3.265625 -6.046875 C 2.046875 -8.085938 1.4375 -10.390625 1.4375 -12.953125 C 1.4375 -15.523438 2.046875 -17.828125 3.265625 -19.859375 C 4.492188 -21.890625 6.175781 -23.476562 8.3125 -24.625 C 10.445312 -25.78125 12.847656 -26.359375 15.515625 -26.359375 C 17.753906 -26.359375 19.78125 -25.960938 21.59375 -25.171875 C 23.40625 -24.378906 24.929688 -23.242188 26.171875 -21.765625 L 22.328125 -18.21875 C 20.566406 -20.238281 18.394531 -21.25 15.8125 -21.25 C 14.207031 -21.25 12.773438 -20.894531 11.515625 -20.1875 C 10.253906 -19.488281 9.269531 -18.507812 8.5625 -17.25 C 7.863281 -15.988281 7.515625 -14.554688 7.515625 -12.953125 C 7.515625 -11.347656 7.863281 -9.914062 8.5625 -8.65625 C 9.269531 -7.40625 10.253906 -6.425781 11.515625 -5.71875 C 12.773438 -5.007812 14.207031 -4.65625 15.8125 -4.65625 C 18.394531 -4.65625 20.566406 -5.679688 22.328125 -7.734375 L 26.171875 -4.1875 C 24.929688 -2.675781 23.398438 -1.523438 21.578125 -0.734375 C 19.753906 0.046875 17.71875 0.4375 15.46875 0.4375 Z M 13.46875 8.59375 C 12.832031 8.59375 12.203125 8.523438 11.578125 8.390625 C 10.960938 8.253906 10.445312 8.0625 10.03125 7.8125 L 10.921875 5.328125 C 11.703125 5.703125 12.503906 5.890625 13.328125 5.890625 C 14.609375 5.890625 15.25 5.492188 15.25 4.703125 C 15.25 3.984375 14.644531 3.625 13.4375 3.625 L 12.171875 3.625 L 13.140625 -0.296875 L 16.203125 -0.296875 L 15.6875 1.84375 C 16.769531 1.96875 17.578125 2.304688 18.109375 2.859375 C 18.640625 3.421875 18.90625 4.109375 18.90625 4.921875 C 18.90625 6.054688 18.410156 6.953125 17.421875 7.609375 C 16.441406 8.265625 15.125 8.59375 13.46875 8.59375 Z M 13.46875 8.59375 "/></g></g></g><g fill="#f1f1f1" fill-opacity="1"><g transform="translate(177.834677, 35.642304)"><g><path d="M 20.140625 -5.546875 L 8.109375 -5.546875 L 5.8125 0 L -0.328125 0 L 11.21875 -25.90625 L 17.140625 -25.90625 L 28.71875 0 L 22.4375 0 Z M 18.25 -10.109375 L 14.140625 -20.03125 L 10.03125 -10.109375 Z M 18.25 -10.109375 "/></g></g></g><g fill="#f1f1f1" fill-opacity="1"><g transform="translate(210.523694, 35.642304)"><g><path d="M 11.578125 0.4375 C 9.535156 0.4375 7.554688 0.160156 5.640625 -0.390625 C 3.734375 -0.941406 2.195312 -1.660156 1.03125 -2.546875 L 3.078125 -7.0625 C 4.179688 -6.25 5.5 -5.597656 7.03125 -5.109375 C 8.5625 -4.617188 10.09375 -4.375 11.625 -4.375 C 13.320312 -4.375 14.578125 -4.625 15.390625 -5.125 C 16.210938 -5.632812 16.625 -6.304688 16.625 -7.140625 C 16.625 -7.753906 16.378906 -8.265625 15.890625 -8.671875 C 15.410156 -9.085938 14.796875 -9.414062 14.046875 -9.65625 C 13.296875 -9.90625 12.28125 -10.175781 11 -10.46875 C 9.019531 -10.9375 7.398438 -11.40625 6.140625 -11.875 C 4.878906 -12.34375 3.796875 -13.09375 2.890625 -14.125 C 1.992188 -15.164062 1.546875 -16.550781 1.546875 -18.28125 C 1.546875 -19.789062 1.953125 -21.15625 2.765625 -22.375 C 3.585938 -23.59375 4.816406 -24.5625 6.453125 -25.28125 C 8.097656 -26 10.101562 -26.359375 12.46875 -26.359375 C 14.125 -26.359375 15.738281 -26.160156 17.3125 -25.765625 C 18.894531 -25.367188 20.28125 -24.800781 21.46875 -24.0625 L 19.625 -19.5 C 17.226562 -20.863281 14.832031 -21.546875 12.4375 -21.546875 C 10.757812 -21.546875 9.519531 -21.273438 8.71875 -20.734375 C 7.914062 -20.191406 7.515625 -19.472656 7.515625 -18.578125 C 7.515625 -17.691406 7.976562 -17.03125 8.90625 -16.59375 C 9.832031 -16.164062 11.242188 -15.742188 13.140625 -15.328125 C 15.117188 -14.859375 16.734375 -14.390625 17.984375 -13.921875 C 19.242188 -13.453125 20.320312 -12.707031 21.21875 -11.6875 C 22.125 -10.675781 22.578125 -9.3125 22.578125 -7.59375 C 22.578125 -6.113281 22.160156 -4.757812 21.328125 -3.53125 C 20.503906 -2.3125 19.265625 -1.34375 17.609375 -0.625 C 15.960938 0.0820312 13.953125 0.4375 11.578125 0.4375 Z M 11.578125 0.4375 "/></g></g></g><g fill="#f1f1f1" fill-opacity="1"><g transform="translate(238.474216, 35.642304)"><g/></g></g><g fill="#f1f1f1" fill-opacity="1"><g transform="translate(253.282824, 35.642304)"><g><path d="M 12.515625 -10.171875 L 9.03125 -6.546875 L 9.03125 0 L 3.078125 0 L 3.078125 -25.90625 L 9.03125 -25.90625 L 9.03125 -13.8125 L 20.5 -25.90625 L 27.171875 -25.90625 L 16.4375 -14.359375 L 27.796875 0 L 20.796875 0 Z M 12.515625 -10.171875 "/></g></g></g><g fill="#f1f1f1" fill-opacity="1"><g transform="translate(285.009346, 35.642304)"><g><path d="M 3.078125 -25.90625 L 9.0625 -25.90625 L 9.0625 0 L 3.078125 0 Z M 3.078125 -25.90625 "/></g></g></g><g fill="#f1f1f1" fill-opacity="1"><g transform="translate(301.483824, 35.642304)"><g><path d="M 26.84375 -25.90625 L 26.84375 0 L 21.90625 0 L 9 -15.734375 L 9 0 L 3.078125 0 L 3.078125 -25.90625 L 8.03125 -25.90625 L 20.90625 -10.171875 L 20.90625 -25.90625 Z M 26.84375 -25.90625 "/></g></g></g><g fill="#f1f1f1" fill-opacity="1"><g transform="translate(335.72768, 35.642304)"><g><path d="M 20.578125 -13.359375 L 26.0625 -13.359375 L 26.0625 -2.84375 C 24.65625 -1.789062 23.023438 -0.976562 21.171875 -0.40625 C 19.316406 0.15625 17.453125 0.4375 15.578125 0.4375 C 12.890625 0.4375 10.472656 -0.132812 8.328125 -1.28125 C 6.179688 -2.425781 4.492188 -4.015625 3.265625 -6.046875 C 2.046875 -8.085938 1.4375 -10.390625 1.4375 -12.953125 C 1.4375 -15.523438 2.046875 -17.828125 3.265625 -19.859375 C 4.492188 -21.890625 6.191406 -23.476562 8.359375 -24.625 C 10.535156 -25.78125 12.976562 -26.359375 15.6875 -26.359375 C 17.957031 -26.359375 20.019531 -25.972656 21.875 -25.203125 C 23.726562 -24.441406 25.285156 -23.332031 26.546875 -21.875 L 22.6875 -18.328125 C 20.84375 -20.273438 18.609375 -21.25 15.984375 -21.25 C 14.335938 -21.25 12.867188 -20.898438 11.578125 -20.203125 C 10.296875 -19.515625 9.296875 -18.539062 8.578125 -17.28125 C 7.867188 -16.03125 7.515625 -14.585938 7.515625 -12.953125 C 7.515625 -11.347656 7.867188 -9.914062 8.578125 -8.65625 C 9.296875 -7.40625 10.289062 -6.425781 11.5625 -5.71875 C 12.832031 -5.007812 14.285156 -4.65625 15.921875 -4.65625 C 17.648438 -4.65625 19.203125 -5.03125 20.578125 -5.78125 Z M 20.578125 -13.359375 "/></g></g></g></g></g></g></g></g></svg>